<svg xmlns="http://www.w3.org/2000/svg" width="50" height="50" viewBox="0 0 50 50">
  <defs>
    <linearGradient id="settings-gradient" x1="0%" y1="0%" x2="100%" y2="0%">
      <stop offset="0%" stop-color="#67f8c0" />
      <stop offset="100%" stop-color="#4361ee" />
    </linearGradient>
  </defs>
  <circle cx="25" cy="25" r="23" fill="#1c1c1c" stroke="url(#settings-gradient)" stroke-width="2" />
  <circle cx="25" cy="25" r="5" fill="url(#settings-gradient)" />
  <path d="M25,12 L27,12 L27,16 C28.5,16.5 30,17.3 31.2,18.4 L34.5,16.5 L35.5,18.5 L32.2,20.4 C32.7,21.8 33,23.3 33,25 C33,26.7 32.7,28.2 32.2,29.6 L35.5,31.5 L34.5,33.5 L31.2,31.6 C30,32.7 28.5,33.5 27,34 L27,38 L25,38 L23,38 L23,34 C21.5,33.5 20,32.7 18.8,31.6 L15.5,33.5 L14.5,31.5 L17.8,29.6 C17.3,28.2 17,26.7 17,25 C17,23.3 17.3,21.8 17.8,20.4 L14.5,18.5 L15.5,16.5 L18.8,18.4 C20,17.3 21.5,16.5 23,16 L23,12 L25,12 Z" stroke="url(#settings-gradient)" stroke-width="1.5" fill="none" />
</svg>
